<svg width="15" height="15" viewBox="0 0 15 15" fill="none" xmlns="http://www.w3.org/2000/svg">
<path d="M10 10C10 7.23858 12.2386 5 15 5V5V10H10V10Z" fill="#E83A33"/>
<path d="M5 10H10V15H5V10Z" fill="#E83A33"/>
<path d="M5 12.5C5 11.1193 6.11929 10 7.5 10V10C8.88071 10 10 11.1193 10 12.5V12.5C10 13.8807 8.88071 15 7.5 15V15C6.11929 15 5 13.8807 5 12.5V12.5Z" fill="#EDF2FA"/>
<path d="M0 5H2.5C3.88071 5 5 6.11929 5 7.5V7.5C5 8.88071 3.88071 10 2.5 10H0V5Z" fill="#262725"/>
<path d="M0 2.5C0 1.11929 1.11929 0 2.5 0V0C3.88071 0 5 1.11929 5 2.5V2.5C5 3.88071 3.88071 5 2.5 5H0V2.5Z" fill="#E83A33"/>
<path d="M10 0V0C12.7614 0 15 2.23858 15 5V5V5C12.2386 5 10 2.76142 10 0V0Z" fill="#E83A33"/>
<path d="M0 10H5V15V15C2.23858 15 0 12.7614 0 10V10Z" fill="#E31833"/>
<path d="M0 10H5V15V15C2.23858 15 0 12.7614 0 10V10Z" fill="#E83A33"/>
<path d="M10 10H15V10C15 12.7614 12.7614 15 10 15V15V10Z" fill="#262725"/>
</svg>
