<svg width="37" height="37" viewBox="0 0 37 37" fill="none" xmlns="http://www.w3.org/2000/svg">
<path d="M10.4344 23.1444C9.87203 23.7053 9.11018 24.0203 8.31591 24.0203H5.03864C3.38178 24.0203 2.03864 22.6771 2.03864 21.0203V17.8563C2.03864 17.0076 2.39813 16.1986 3.02804 15.6297L4.02361 14.7307C4.46261 14.3343 5.00902 14.0765 5.59413 13.9897L13.0597 12.8826C15.9216 12.4582 17.6668 15.9313 15.6183 17.9743L10.4344 23.1444Z" fill="#E83A33"/>
<path d="M13.6774 26.1935C13.1131 26.7563 12.796 27.5205 12.796 28.3175V31.5697C12.796 33.2266 14.1391 34.5697 15.796 34.5697H18.9853C19.8312 34.5697 20.6378 34.2126 21.2064 33.5863L22.108 32.5932C22.5069 32.1538 22.7665 31.606 22.854 31.019L23.9641 23.5723C24.3903 20.7136 20.9248 18.9648 18.8783 21.0059L13.6774 26.1935Z" fill="#E83A33"/>
<path d="M26.3558 5.03642C26.7784 4.64506 27.2933 4.36653 27.8526 4.22668L28.3586 4.10019C30.534 3.55633 32.5464 5.43463 32.1462 7.63547C32.0504 8.1626 31.8183 8.65567 31.4729 9.06593L17.523 25.6335C15.7957 27.6849 12.6772 27.8201 10.7779 25.9259C8.94252 24.0954 8.99795 21.1109 10.9001 19.3494L26.3558 5.03642Z" fill="#262725"/>
<path d="M6.27668 26.7496C7.15204 26.148 8.33331 26.2555 9.08503 27.0052L9.97592 27.8937C10.7165 28.6324 10.8146 29.7962 10.208 30.6478C10.0702 30.8411 9.90125 31.0103 9.7079 31.1484L4.13089 35.132C3.46218 35.6096 2.55643 35.585 1.91481 35.0717C1.13082 34.4445 0.998784 33.3049 1.61871 32.5159L5.79265 27.2037C5.93005 27.0288 6.09325 26.8757 6.27668 26.7496Z" fill="#E83A33"/>
</svg>
